<?xml version="1.0" encoding="UTF-8"?>
<svg width="19px" height="17px" viewBox="0 0 19 17" version="1.1" xmlns="http://www.w3.org/2000/svg" xmlns:xlink="http://www.w3.org/1999/xlink">
    <g id="Academy-microsite" stroke="none" stroke-width="1" fill="none" fill-rule="evenodd">
        <g id="Home-page" transform="translate(-540.000000, -227.000000)">
            <g id="Group-Copy" transform="translate(540.000000, 227.000000)">
                <path d="M9.53535634,0.891872476 L0.912676752,5.97794828 L4.53834921,16.25 L14.2064303,16.25 L18.0773276,6.90255469 L9.53535634,0.891872476 Z" id="Polygon" stroke="#333333" stroke-width="1.5" transform="translate(9.500000, 8.500000) rotate(180.000000) translate(-9.500000, -8.500000) "></path>
                <path d="M11.3912885,4 L11.3912885,5.57801998 L11.036632,5.57801998 L12.5790049,9.42070845 L13,9.42070845 L13,11 L10.3043557,11 L10.3043557,9.42070845 L10.5314379,9.42070845 L10.4306543,9.11044505 L8.56934573,9.11044505 L8.45963186,9.42070845 L8.68671405,9.42070845 L8.68671405,11 L6,11 L6,9.42070845 L6.42099508,9.42070845 L7.96336796,5.58437784 L7.65974121,5.58437784 L7.65974121,4 L11.3912885,4 Z M9,8 L10,8 L9.5,7 L9,8 Z" id="Shape" fill="#333333" fill-rule="nonzero"></path>
            </g>
        </g>
    </g>
</svg>