<svg width="18" height="18" viewBox="0 0 18 18" fill="none" xmlns="http://www.w3.org/2000/svg"><mask id="mask0" mask-type="alpha" maskUnits="userSpaceOnUse" x="0" y="0" width="18" height="18"><path d="M12.446 16C11.752 17.19 10.477 18 9 18C7.524 18 6.248 17.19 5.555 16H12.446ZM9 0C12.309 0 15 2.691 15 6V8.838C15 10.298 15.932 11.589 17.317 12.052L18 12.279V15H0V12.279L0.684 12.052C2.069 11.589 3 10.298 3 8.838V6C3 2.691 5.692 0 9 0ZM9 2C6.795 2 5 3.794 5 6V8.838C5 10.486 4.255 11.998 3.035 13H14.966C13.745 11.998 13 10.486 13 8.838V6C13 3.794 11.206 2 9 2Z" fill="white"/></mask><g mask="url(#mask0)"><path d="M12.446 16C11.752 17.19 10.477 18 9 18C7.524 18 6.248 17.19 5.555 16H12.446ZM9 0C12.309 0 15 2.691 15 6V8.838C15 10.298 15.932 11.589 17.317 12.052L18 12.279V15H0V12.279L0.684 12.052C2.069 11.589 3 10.298 3 8.838V6C3 2.691 5.692 0 9 0ZM9 2C6.795 2 5 3.794 5 6V8.838C5 10.486 4.255 11.998 3.035 13H14.966C13.745 11.998 13 10.486 13 8.838V6C13 3.794 11.206 2 9 2Z" fill="#757575"/><path d="M25.0002 -7H-6.99976V25H25.0002V-7Z" fill="#FAFAFA"/><path d="M25.0002 -7H-6.99976V25H25.0002V-7Z" fill="#333333"/></g></svg>