<svg width="24" height="24" viewBox="0 0 24 24" fill="none" xmlns="http://www.w3.org/2000/svg">
<g clip-path="url(#clip0_701_3947)">
<path d="M24 0H0V24H24V0Z" fill="#436CF2"/>
<path d="M12.9758 20.128C9.10648 20.152 6.11182 17.752 5.13315 14.5094C4.81199 13.4815 4.69335 12.4011 4.78382 11.328C5.08248 8.07202 7.07982 5.16535 10.6505 4.17335C11.2103 4.03382 11.7815 3.94458 12.3572 3.90668C13.0471 3.85409 13.7406 3.87376 14.4265 3.96535C16.1632 4.14705 17.7873 4.91117 19.0345 6.13335C19.1545 6.25069 19.1732 6.31468 19.0532 6.44802C18.4025 7.18402 17.758 7.92713 17.1198 8.67736C17.0105 8.80536 16.9465 8.80002 16.8291 8.69336C16.1412 8.04037 15.3143 7.5517 14.4105 7.26402C11.7438 6.49602 9.23715 7.89869 8.56248 10.64C8.36127 11.3843 8.32601 12.1637 8.45918 12.923C8.59235 13.6824 8.8907 14.4033 9.33315 15.0347C9.66078 15.5318 10.0903 15.9536 10.5932 16.2722C11.0962 16.5908 11.6611 16.7989 12.2505 16.8827C12.9911 16.9987 13.7481 16.9513 14.4686 16.7441C15.189 16.5368 15.8554 16.1745 16.4212 15.6827C16.6212 15.52 16.8185 15.3547 17.0105 15.1814C17.0825 15.1147 17.1305 15.1147 17.1998 15.1814C17.8647 15.8569 18.5296 16.5289 19.1945 17.1974C19.2905 17.2934 19.2718 17.3627 19.1945 17.464C18.0877 18.6985 16.6247 19.5586 15.0078 19.9254C14.3417 20.078 13.659 20.1461 12.9758 20.128Z" fill="white"/>
</g>
<defs>
<clipPath id="clip0_701_3947">
<rect width="24" height="24" rx="4" fill="white"/>
</clipPath>
</defs>
</svg>
