<svg xmlns="http://www.w3.org/2000/svg" viewBox="0 0 32 32" focusable="false" stroke="none" stroke-width="0" aria-labelledby="label-8e8fa364-9e96-4a65-b7b3-0dc1954974a4" aria-hidden="true" class="sc-jSUZER eTaWgc"><title id="label-8e8fa364-9e96-4a65-b7b3-0dc1954974a4">Icon</title><path d="M16,6 C21.528,6 26.001,10.475 26,16 C26,21.528 21.525,26 16,26 C10.472,26 6,21.526 6,16 C5.999,10.473 10.475,6 16,6 Z M8,16 C8,18.096 8.805,20.067 10.262,21.568 L13.088,13.088 L21.567,10.262 C20.067,8.805 18.097,8 16,8 C13.863,8 11.854,8.832 10.343,10.343 C8.832,11.854 8,13.863 8,16 Z M14.669,14.669 L13.338,18.663 L17.33,17.332 L14.669,14.669 Z M16,24 C20.422,24 24,20.422 24,16 C24,13.904 23.195,11.933 21.738,10.432 L18.912,18.912 L10.434,21.739 C11.934,23.195 13.904,24 16,24 Z" style="fill: rgb(110, 110, 110);"/></svg>