<svg xmlns="http://www.w3.org/2000/svg" viewBox="0 0 32 32" focusable="false" stroke="none" stroke-width="0" aria-labelledby="label-24bc4b8b-ed95-402a-b8af-7e79ad9e0807" aria-hidden="true" class="sc-jSUZER eTaWgc"><title id="label-24bc4b8b-ed95-402a-b8af-7e79ad9e0807">Icon</title><path d="M16,27C10.14,27,5,21.33,5,14.86A11.12,11.12,0,0,1,9.72,5.73a3.62,3.62,0,0,1,2.65-.68A2.14,2.14,0,0,1,13.8,6c.73.92.55,2.19.39,3.32a4.83,4.83,0,0,0-.07,1.42c.26.31.83.13,2.39-.61C18.38,9.2,21,8,23.79,9.34c3.78,2,3.65,8,3.18,9.9C25.88,23.59,21.06,27,16,27ZM11.88,7a1.93,1.93,0,0,0-1,.37A9.13,9.13,0,0,0,7,14.86C7,20.26,11.21,25,16,25c4.19,0,8.15-2.74,9-6.24.29-1.18.51-6.26-2.12-7.63-2-.92-3.78-.07-5.54.77s-3.49,1.64-4.83,0A3.84,3.84,0,0,1,12.21,9c.08-.58.22-1.56,0-1.81l-.06-.08A.23.23,0,0,0,12,7ZM19,23a2,2,0,1,1,2-2A2,2,0,0,1,19,23Zm-6-1a2,2,0,1,1,2-2A2,2,0,0,1,13,22Zm-3-5a2,2,0,1,1,2-2A2,2,0,0,1,10,17Z" style="fill: rgb(255, 255, 255);"/></svg>