<svg xmlns="http://www.w3.org/2000/svg" viewBox="0 0 32 32" focusable="false" stroke="none" stroke-width="0" aria-labelledby="label-688bb026-8691-4812-b0cb-b48595478dbb" aria-hidden="true" class="sc-jSUZER eTaWgc"><title id="label-688bb026-8691-4812-b0cb-b48595478dbb">Icon</title><path d="M25,21 L12,21 C10.897,21 10,20.103 10,19 L10,10 C10,8.896 10.897,8 12,8 L25,8 C26.103,8 27,8.896 27,10 L27,19 C27,20.102 26.103,21 25,21 Z M20,25 L8,25 C6.897,25 6,24.103 6,23 L6,13 L8,13 L8,23 L20,23 L20,25 Z M12,10 L12,19 L25.001,19 L25,10 L12,10 Z" style="fill: rgb(110, 110, 110);"/></svg>