<svg xmlns="http://www.w3.org/2000/svg" viewBox="0 0 32 32" focusable="false" stroke="none" stroke-width="0" aria-labelledby="label-0ed155dd-52e3-4289-9be6-2217154ed6e3" aria-hidden="true" class="sc-jSUZER eTaWgc"><title id="label-0ed155dd-52e3-4289-9be6-2217154ed6e3">Icon</title><path d="M26.817,15.425 C26.633,15.162 22.222,9 16,9 C9.778,9 5.367,15.162 5.183,15.425 C4.939,15.77 4.939,16.231 5.183,16.576 C5.367,16.838 9.778,23 16,23 C22.222,23 26.633,16.838 26.817,16.576 C27.061,16.23 27.061,15.77 26.817,15.425 Z M16,21 C11.834,21 8.451,17.425 7.269,15.999 C8.448,14.573 11.82,11 16,11 C20.166,11 23.549,14.576 24.731,16.001 C23.552,17.428 20.18,21 16,21 Z M16,12 C13.794,12 12,13.795 12,16 C12,18.206 13.794,20 16,20 C18.206,20 20,18.206 20,16 C20,13.795 18.206,12 16,12 Z M16,18 C14.897,18 14,17.103 14,16 C14,14.898 14.897,14 16,14 C17.103,14 18,14.898 18,16 C18,17.103 17.103,18 16,18 Z" style="fill: rgb(0, 0, 0);"/></svg>