<svg xmlns="http://www.w3.org/2000/svg" viewBox="0 0 32 32" focusable="false" stroke="none" stroke-width="0" aria-labelledby="label-22bae7b0-39b5-48fa-ba9b-6ccfd106bcc9" aria-hidden="true" class="sc-jSUZER eTaWgc"><title id="label-22bae7b0-39b5-48fa-ba9b-6ccfd106bcc9">Icon</title><path d="M9,24 C9,25.103 9.897,26 11,26 L21,26 C22.103,26 23,25.103 23,24 L23,12 L9,12 L9,24 Z M11,14 L21,14 L21.001,24 L11,24 L11,14 Z M19,9 L25,9 L25,11 L7,11 L7,9 L13,9 L13,7 L19,7 L19,9 Z M13,16 L13,22 L15,22 L15,16 L13,16 Z M17,16 L17,22 L19,22 L19,16 L17,16 Z" style="fill: rgb(110, 110, 110);"/></svg>