<svg xmlns="http://www.w3.org/2000/svg" viewBox="-6 -6 44 44" focusable="false" stroke="none" stroke-width="0" aria-labelledby="label-dfe7acd1-8a9f-415f-8109-a60204eb28a8" aria-hidden="true" class="sc-jSUZER eTaWgc"><title id="label-dfe7acd1-8a9f-415f-8109-a60204eb28a8">Icon</title><path d="M26,16 C24.897,16 24,15.103 24,14 C24,12.897 24.897,12 26,12 C27.103,12 28,12.897 28,14 C28,15.103 27.103,16 26,16 L26,16 Z M10,23 C10,22.298 10.127,21.627 10.35,21 C10.487,20.615 10.661,20.248 10.87,19.904 C11.923,18.167 13.825,17 16,17 C18.175,17 20.077,18.167 21.13,19.904 C21.339,20.248 21.513,20.615 21.65,21 C21.873,21.627 22,22.298 22,23 L10,23 Z M16,9 C17.654,9 19,10.346 19,12 C19,13.654 17.654,15 16,15 C14.346,15 13,13.654 13,12 C13,10.346 14.346,9 16,9 L16,9 Z M6,16 C4.897,16 4,15.103 4,14 C4,12.897 4.897,12 6,12 C7.103,12 8,12.897 8,14 C8,15.103 7.103,16 6,16 L6,16 Z M28.793,16.855 C29.536,16.128 30,15.119 30,14 C30,11.794 28.206,10 26,10 C23.794,10 22,11.794 22,14 C22,15.119 22.464,16.128 23.207,16.855 C22.795,17.133 22.444,17.486 22.132,17.871 C21.367,16.958 20.4,16.223 19.305,15.723 C20.336,14.807 21,13.485 21,12 C21,9.243 18.757,7 16,7 C13.243,7 11,9.243 11,12 C11,13.485 11.664,14.807 12.695,15.723 C11.6,16.223 10.633,16.958 9.868,17.871 C9.556,17.486 9.205,17.133 8.793,16.855 C9.536,16.128 10,15.119 10,14 C10,11.794 8.206,10 6,10 C3.794,10 2,11.794 2,14 C2,15.119 2.464,16.128 3.207,16.855 C1.876,17.754 1,19.277 1,21 L3,21 C3,19.346 4.346,18 6,18 C7.198,18 8.227,18.711 8.707,19.729 C8.257,20.729 8,21.834 8,23 L8,24 C8,24.552 8.448,25 9,25 L23,25 C23.552,25 24,24.552 24,24 L24,23 C24,21.834 23.743,20.729 23.293,19.729 C23.773,18.711 24.802,18 26,18 C27.654,18 29,19.346 29,21 L31,21 C31,19.277 30.124,17.754 28.793,16.855 L28.793,16.855 Z" style="fill: rgb(110, 110, 110);"/></svg>