<svg xmlns="http://www.w3.org/2000/svg" viewBox="0 0 28 28" focusable="false" stroke="none" stroke-width="0" aria-labelledby="label-c45cb1ea-ccc8-4725-bdb1-a9f57791b487" aria-hidden="true" class="sc-jSUZER eTaWgc"><title id="label-c45cb1ea-ccc8-4725-bdb1-a9f57791b487">Icon</title><path d="M22.4127 12.434L14.5377 6.30899C14.2218 6.06399 13.7791 6.06399 13.4623 6.30899L5.58732 12.434C5.20669 12.7306 5.13757 13.281 5.43507 13.6616C5.73169 14.0431 6.28032 14.1131 6.66269 13.8156L7.00044 13.5531V21.0002C7.00044 21.4832 7.39157 21.8752 7.87544 21.8752H11.3754C11.8584 21.8752 12.2504 21.4832 12.2504 21.0002V15.7502H15.7504V21.0002C15.7504 21.4832 16.1416 21.8752 16.6254 21.8752H20.1254C20.6084 21.8752 21.0004 21.4832 21.0004 21.0002V13.5531L21.3373 13.8156C21.4974 13.9399 21.6873 14.0002 21.8746 14.0002C22.1353 14.0002 22.3934 13.8839 22.5658 13.6616C22.8633 13.281 22.7942 12.7306 22.4127 12.434Z" style="fill: rgb(110, 110, 110);"/></svg>