<svg xmlns="http://www.w3.org/2000/svg" width="24" height="16" viewBox="0 0 24 16">
    <path fill="#333" fill-rule="evenodd" d="M22 13H2V8c0-.827.673-1.5 1.5-1.5S5 7.173 5 8v1a1 1 0 0 0 1 1h12a1 1 0 0 0 1-1V8c0-.827.673-1.5 1.5-1.5S22 7.173 22 8v5zM8 2h3v6H7a3.494 3.494 0 0 0-1.985-3.141A2.995 2.995 0 0 1 8 2zm10.986 2.859A3.493 3.493 0 0 0 17 8h-4V2h3a2.998 2.998 0 0 1 2.986 2.859zm1.968-.313C20.721 2.004 18.602 0 16 0H8C5.398 0 3.279 2.004 3.046 4.546 1.332 4.771 0 6.226 0 8v5c0 1.103.896 2 2 2v1h2v-1h16v1h2v-1c1.103 0 2-.897 2-2V8c0-1.774-1.332-3.229-3.046-3.454z"/>
</svg>
