<svg xmlns="http://www.w3.org/2000/svg" viewBox="0 0 32 32" focusable="false" stroke="none" stroke-width="0" aria-labelledby="label-8dc69116-0081-4be2-a191-f91ab12898fb" aria-hidden="true" class="sc-jSUZER eTaWgc"><title id="label-8dc69116-0081-4be2-a191-f91ab12898fb">Icon</title><path d="M8,11 C7.447715,11 7,10.55228 7,10 C7,9.44772 7.447715,9 8,9 C8.552285,9 9,9.44772 9,10 C9,10.55228 8.552285,11 8,11 Z M11,9 L25,9 L25,11 L11,11 L11,9 Z M8,17 C7.447715,17 7,16.55228 7,16 C7,15.44772 7.447715,15 8,15 C8.552285,15 9,15.44772 9,16 C9,16.55228 8.552285,17 8,17 Z M11,15 L25,15 L25,17 L11,17 L11,15 Z M8,23 C7.447715,23 7,22.552285 7,22 C7,21.44772 7.447715,21 8,21 C8.552285,21 9,21.44772 9,22 C9,22.552285 8.552285,23 8,23 Z M11,21 L25,21 L25,23 L11,23 L11,21 Z" style="fill: rgb(110, 110, 110);"/></svg>