<svg xmlns="http://www.w3.org/2000/svg" viewBox="0 0 32 32" focusable="false" stroke="none" stroke-width="0" aria-labelledby="label-8247c67d-bfc3-4772-9245-54ee92919fbf" aria-hidden="true" class="sc-jSUZER eTaWgc"><title id="label-8247c67d-bfc3-4772-9245-54ee92919fbf">Icon</title><path d="M25.9,14.9L25.9,14.9l-2.7-7.3c-0.1-0.2-0.2-0.3-0.3-0.4S22.5,7,22.4,7H9.6C9.5,7,9.3,7.1,9.1,7.2 S8.9,7.4,8.8,7.6l-2.7,7.3C6,15,6,15.1,6,15.3c0,0.1,0.1,0.3,0.2,0.4c0.1,0.1,0.2,0.2,0.3,0.3c0.1,0.1,0.3,0.1,0.4,0.1h0.9v8.2 c0,0.2,0.1,0.5,0.3,0.6c0.2,0.2,0.4,0.3,0.6,0.3h14.5c0.2,0,0.5-0.1,0.6-0.3c0.2-0.2,0.3-0.4,0.3-0.6v-8.2h0.9c0.1,0,0.3,0,0.4-0.1 c0.1-0.1,0.2-0.2,0.3-0.3c0.1-0.1,0.1-0.3,0.2-0.4C26,15.1,26,15,25.9,14.9z M18,8.8l1.4,5.5h-2.5l0-5.5H18z M14,8.8h1.1v5.5h-2.5 L14,8.8z M8.2,14.3l2.1-5.5h1.8l-1.4,5.5H8.2z M19.6,23.4h-1.8v-4.5h1.8V23.4z M22.4,23.4h-0.9v-5.5c0-0.2-0.1-0.5-0.3-0.6 C21,17.1,20.8,17,20.5,17h-3.6c-0.2,0-0.5,0.1-0.6,0.3c-0.2,0.2-0.3,0.4-0.3,0.6v5.5H9.6v-7.3h12.7V23.4z M21.3,14.3l-1.4-5.5h1.8 l2.1,5.5H21.3z M11.5,21.5h2.7c0.5,0,0.9-0.4,0.9-0.9v-2.7c0-0.5-0.4-0.9-0.9-0.9h-2.7c-0.5,0-0.9,0.4-0.9,0.9v2.7 C10.5,21.1,10.9,21.5,11.5,21.5z M12.4,18.8h0.9v0.9h-0.9V18.8z" style="fill: rgb(110, 110, 110);"/></svg>