<svg width="22" height="20" viewBox="0 0 22 20" fill="none" xmlns="http://www.w3.org/2000/svg">
<path d="M21.9251 8.65003L18.9251 0.65003C18.8542 0.460223 18.7273 0.296439 18.5612 0.180364C18.3951 0.0642889 18.1977 0.00137463 17.995 5.27831e-06H4.00506C3.80074 -0.000658433 3.60112 0.0612854 3.43307 0.177496C3.26501 0.293706 3.13657 0.458629 3.06506 0.65003L0.0650555 8.65003C0.00781257 8.80088 -0.0120825 8.96334 0.0070721 9.12354C0.0262267 9.28374 0.0838782 9.43691 0.175071 9.57001C0.267927 9.70387 0.392081 9.81303 0.536735 9.88798C0.681389 9.96292 0.842149 10.0014 1.00506 10H2.00506V19C2.00506 19.2652 2.11043 19.5196 2.29797 19.7071C2.4855 19.8947 2.73984 20 3.00506 20H19.0051C19.2703 20 19.5246 19.8947 19.7122 19.7071C19.8997 19.5196 20.0051 19.2652 20.0051 19V10H21.0051C21.166 9.99892 21.3242 9.95903 21.4664 9.8837C21.6086 9.80838 21.7305 9.69987 21.8218 9.56736C21.9131 9.43485 21.9711 9.28226 21.9908 9.12256C22.0105 8.96286 21.9914 8.80076 21.9351 8.65003H21.9251ZM19.5451 8.00001H16.775L15.275 2.00001H17.275L19.5451 8.00001ZM7.27505 8.00001L8.77505 2.00001H10.0051V8.00001H7.27505ZM11.995 2.00001H13.2051L14.7051 8.00001H12.0051L11.995 2.00001ZM4.68505 2.00001H6.68505L5.18505 8.00001H2.41506L4.68505 2.00001ZM12.995 18V13H14.995V18H12.995ZM17.995 18H16.995V12C16.995 11.7348 16.8897 11.4804 16.7022 11.2929C16.5146 11.1054 16.2603 11 15.995 11H11.995C11.7298 11 11.4755 11.1054 11.288 11.2929C11.1004 11.4804 10.995 11.7348 10.995 12V18H3.99505V10H17.995V18Z" fill="#333333"/>
<path fill-rule="evenodd" clip-rule="evenodd" d="M5.99512 11H8.99512C9.5474 11 9.99512 11.4477 9.99512 12V15C9.99512 15.5523 9.5474 16 8.99512 16H5.99512C5.44283 16 4.99512 15.5523 4.99512 15V12C4.99512 11.4477 5.44283 11 5.99512 11ZM7.99512 13H6.99512V14H7.99512V13Z" fill="#333333"/>
</svg>
