<svg xmlns="http://www.w3.org/2000/svg" viewBox="0 0 32 32" focusable="false" stroke="none" stroke-width="0" aria-labelledby="label-1c31e780-714a-4df6-8797-63919013c6b6" aria-hidden="true" class="sc-jSUZER eTaWgc"><title id="label-1c31e780-714a-4df6-8797-63919013c6b6">Icon</title><path d="M19,19 L19,24 L23.997,24 L24,19 L19,19 Z M24,26 L19,26 C17.897,26 17,25.103 17,24 L17,19 C17,17.898 17.897,17 19,17 L24,17 C25.103,17 26,17.898 26,19 L26,24 C26,25.103 25.103,26 24,26 L24,26 Z M8,19 L8,24 L12.997,24 L13,19 L8,19 Z M13,26 L8,26 C6.897,26 6,25.103 6,24 L6,19 C6,17.898 6.897,17 8,17 L13,17 C14.103,17 15,17.898 15,19 L15,24 C15,25.103 14.103,26 13,26 L13,26 Z M19,8 L19,13 L23.997,13 L24,8 L19,8 Z M24,15 L19,15 C17.897,15 17,14.103 17,13 L17,8 C17,6.898 17.897,6 19,6 L24,6 C25.103,6 26,6.898 26,8 L26,13 C26,14.103 25.103,15 24,15 L24,15 Z M8,8 L8,13 L12.997,13 L13,8 L8,8 Z M13,15 L8,15 C6.897,15 6,14.103 6,13 L6,8 C6,6.898 6.897,6 8,6 L13,6 C14.103,6 15,6.898 15,8 L15,13 C15,14.103 14.103,15 13,15 L13,15 Z" style="fill: rgb(110, 110, 110);"/></svg>