<svg xmlns="http://www.w3.org/2000/svg" viewBox="0 0 32 32" focusable="false" stroke="none" stroke-width="0" aria-labelledby="label-c6c1a60c-0515-447b-8330-0417c41503e0" aria-hidden="true" class="sc-jSUZER eTaWgc"><title id="label-c6c1a60c-0515-447b-8330-0417c41503e0">Icon</title><path d="M25,12.55A5,5,0,0,0,20,8H12a5,5,0,0,0-4.95,4.55A3.49,3.49,0,0,0,4,16v5a2,2,0,0,0,2,2v1H8V23H24v1h2V23a2,2,0,0,0,2-2V16A3.49,3.49,0,0,0,25,12.55Zm-2,.31A3.49,3.49,0,0,0,21,16H17V10h3A3,3,0,0,1,23,12.86ZM12,10h3v6H11a3.49,3.49,0,0,0-2-3.14A3,3,0,0,1,12,10ZM26,21H6V16a1.5,1.5,0,0,1,3,0v1a1,1,0,0,0,1,1H22a1,1,0,0,0,1-1V16a1.5,1.5,0,0,1,3,0Z" style="fill: rgb(255, 255, 255);"/></svg>