<svg xmlns="http://www.w3.org/2000/svg" viewBox="0 0 32 32" focusable="false" stroke="none" stroke-width="0" aria-labelledby="label-a31bea3e-a67d-4de5-80e9-be19e85cfe80" aria-hidden="true" class="sc-jSUZER eTaWgc"><title id="label-a31bea3e-a67d-4de5-80e9-be19e85cfe80">Icon</title><path d="M24,6 C25.103,6 26,6.896 26,8 L26,18 C26,19.103 25.103,20 24,20 L18.415,20 L24.414,25.998 L21.586,25.998 L17,21.413 L17,25.998 L15,25.998 L15,21.413 L10.414,25.998 L7.586,25.998 L13.585,20 L8,20 C6.897,20 6,19.103 6,18 L6,8 C6,6.896 6.897,6 8,6 L24,6 Z M8,18 L23.997,18 L23.999,11.415 L19.707,15.707 C19.512,15.902 19.256,16 19,16 C18.744,16 18.488,15.902 18.293,15.707 L17,14.415 L15.707,15.707 C15.316,16.098 14.684,16.098 14.293,15.707 L12,13.415 L10.707,14.707 C10.52,14.895 10.265,15 10,15 L8,15 L8,18 Z M24,8 L8,8 L8,13 L9.586,13 L11.293,11.292 C11.684,10.902 12.316,10.902 12.707,11.292 L15,13.585 L16.293,12.292 C16.684,11.902 17.316,11.902 17.707,12.292 L19,13.585 L24,8.585 L24,8 Z" style="fill: rgb(255, 255, 255);"/></svg>