<?xml version="1.0" encoding="utf-8"?>
<!-- Generator: Adobe Illustrator 24.1.0, SVG Export Plug-In . SVG Version: 6.00 Build 0)  -->
<svg version="1.1" id="Layer_1" xmlns="http://www.w3.org/2000/svg" xmlns:xlink="http://www.w3.org/1999/xlink" x="0px" y="0px"
	 width="16.5px" height="13.5px" viewBox="0 0 16.5 13.5" style="enable-background:new 0 0 16.5 13.5;" xml:space="preserve">
<style type="text/css">
	.st0{fill-rule:evenodd;clip-rule:evenodd;fill:#333333;}
</style>
<path class="st0" d="M1.5,11.2v1.5c0,0.4-0.3,0.8-0.8,0.8S0,13.2,0,12.7v-1.5c0-0.4,0.3-0.8,0.8-0.8S1.5,10.8,1.5,11.2z M8.3,6.7
	L2.6,4.4l5.7-2.8l5.7,2.8L8.3,6.7z M12,9.4l-0.7,0.4c-1.9,0.9-4.1,0.9-6,0L4.5,9.4V6.8L8,8.2c0.1,0,0.2,0.1,0.3,0.1s0.2,0,0.3-0.1
	L12,6.8V9.4L12,9.4z M16.1,3.8L8.6,0.1C8.4,0,8.1,0,7.9,0.1L0.4,3.8C0.3,3.9,0.1,4,0.1,4.2C0,4.3,0,4.4,0,4.5v4.3
	c0,0.4,0.3,0.8,0.8,0.8s0.8-0.3,0.8-0.8V5.6L3,6.2v3.7c0,0.3,0.2,0.5,0.4,0.7C4.7,11.2,6,12,8.2,12c2.2,0,3.5-0.8,4.8-1.4
	c0.3-0.1,0.4-0.4,0.4-0.7V6.2l2.5-1c0.3-0.1,0.5-0.4,0.5-0.7C16.5,4.2,16.3,4,16.1,3.8z"/>
</svg>
