<svg xmlns="http://www.w3.org/2000/svg" viewBox="0 0 32 32" focusable="false" stroke="none" stroke-width="0" aria-labelledby="label-0cc77eae-c8d7-4df0-8782-cc3a5a7fbf1f" aria-hidden="true" class="sc-jSUZER eTaWgc"><title id="label-0cc77eae-c8d7-4df0-8782-cc3a5a7fbf1f">Icon</title><path d="M25,7.5H18a1,1,0,0,0-.71.29L16,9.09l-1.29-1.3A1,1,0,0,0,14,7.5H7a1,1,0,0,0-1,1v13a1,1,0,0,0,1,1h6.59l1.7,1.71a1,1,0,0,0,1.42,0l1.7-1.71H25a1,1,0,0,0,1-1V8.5A1,1,0,0,0,25,7.5Zm-11,13H8V9.5h5.59L15,10.91V21.09l-.29-.3A1,1,0,0,0,14,20.5Zm10,0H18a1,1,0,0,0-.71.29l-.29.3V10.91L18.41,9.5H24Z" style="fill: rgb(255, 255, 255);"/></svg>