<svg xmlns="http://www.w3.org/2000/svg" viewBox="-6 -6 32 32" focusable="false" stroke="none" stroke-width="0" aria-labelledby="label-2e695c52-0823-4e32-88ed-e3d73e68a05c" aria-hidden="true" class="sc-jSUZER eTaWgc"><title id="label-2e695c52-0823-4e32-88ed-e3d73e68a05c">Icon</title><path d="M18 5.97H14.89C15.3435 5.74279 15.7585 5.44584 16.12 5.09C16.6818 4.52749 16.9974 3.765 16.9974 2.97C16.9974 2.175 16.6818 1.41251 16.12 0.850006C15.5477 0.306998 14.7889 0.00430298 14 0.00430298C13.2111 0.00430298 12.4523 0.306998 11.88 0.850006C10.24 2.49001 10.02 5.56994 10 5.90994C10 5.56994 9.76 2.49001 8.12 0.850006C7.54772 0.306998 6.7889 0.00430298 6 0.00430298C5.2111 0.00430298 4.45228 0.306998 3.88 0.850006C3.3182 1.41251 3.00262 2.175 3.00262 2.97C3.00262 3.765 3.3182 4.52749 3.88 5.09C4.24409 5.44271 4.65861 5.7393 5.10999 5.97H2C1.46957 5.97 0.960888 6.18074 0.585815 6.55582C0.210743 6.93089 0 7.43957 0 7.97V10.97C0 11.2352 0.105371 11.4896 0.292908 11.6772C0.480444 11.8647 0.734784 11.97 1 11.97V17.97C1 18.5004 1.21074 19.0091 1.58582 19.3842C1.96089 19.7593 2.46957 19.97 3 19.97H17C17.5304 19.97 18.0391 19.7593 18.4142 19.3842C18.7893 19.0091 19 18.5004 19 17.97V11.97C19.2652 11.97 19.5196 11.8647 19.7071 11.6772C19.8946 11.4896 20 11.2352 20 10.97V7.97C20 7.43957 19.7893 6.93089 19.4142 6.55582C19.0391 6.18074 18.5304 5.97 18 5.97ZM6 17.97H3V11.97H6V17.97ZM6 9.97H2V7.97H6V9.97ZM5.28998 3.67996C5.10167 3.49166 4.99591 3.2363 4.99591 2.97C4.99591 2.7037 5.10167 2.44834 5.28998 2.26004C5.47828 2.07174 5.7337 1.96585 6 1.96585C6.2663 1.96585 6.52172 2.07174 6.71002 2.26004C7.01023 2.24624 7.30757 2.32346 7.56305 2.48172C7.81853 2.63998 8.02019 2.87182 8.14154 3.14676C8.26289 3.42169 8.29828 3.72696 8.24304 4.02237C8.1878 4.31778 8.04454 4.58953 7.83203 4.80203C7.61953 5.01454 7.34771 5.1578 7.05231 5.21304C6.7569 5.26828 6.45169 5.23296 6.17676 5.1116C5.90182 4.99025 5.67004 4.78859 5.51178 4.53311C5.35352 4.27763 5.27618 3.98017 5.28998 3.67996ZM12 17.97H8V11.97H12V17.97ZM12 9.97H8V7.97H12V9.97ZM13.29 2.26004C13.3829 2.16631 13.4936 2.09194 13.6154 2.04117C13.7373 1.9904 13.868 1.96426 14 1.96426C14.132 1.96426 14.2627 1.9904 14.3846 2.04117C14.5064 2.09194 14.6171 2.16631 14.71 2.26004C14.8038 2.353 14.8781 2.46362 14.9289 2.58548C14.9797 2.70734 15.0058 2.83799 15.0058 2.97C15.0058 3.10201 14.9797 3.23266 14.9289 3.35452C14.8781 3.47638 14.8038 3.587 14.71 3.67996C14.7238 3.98017 14.6465 4.27763 14.4882 4.53311C14.33 4.78859 14.0982 4.99025 13.8232 5.1116C13.5483 5.23296 13.2431 5.26828 12.9477 5.21304C12.6523 5.1578 12.3805 5.01454 12.168 4.80203C11.9555 4.58953 11.8122 4.31778 11.757 4.02237C11.7017 3.72696 11.7371 3.42169 11.8585 3.14676C11.9798 2.87182 12.1815 2.63998 12.437 2.48172C12.6924 2.32346 12.9898 2.24624 13.29 2.26004ZM17 17.97H14V11.97H17V17.97ZM18 9.97H14V7.97H18V9.97Z" style="fill: rgb(110, 110, 110);"/></svg>