<?xml version="1.0" encoding="utf-8"?>
<!-- Generator: Adobe Illustrator 24.1.0, SVG Export Plug-In . SVG Version: 6.00 Build 0)  -->
<svg version="1.1" id="Layer_1" xmlns="http://www.w3.org/2000/svg" xmlns:xlink="http://www.w3.org/1999/xlink" x="0px" y="0px"
	 width="20px" height="20px" viewBox="0 0 20 20" style="enable-background:new 0 0 20 20;" xml:space="preserve">
<style type="text/css">
	.st0{fill-rule:evenodd;clip-rule:evenodd;}
</style>
<g>
	<g>
		<path id="a_1_" class="st0" d="M2,0h16c1.1,0,1.9,0.8,2,1.8L20,2v10c0,1-0.8,1.9-1.9,2L18,14h-5.6l6,6h-2.8L11,15.4V20H9v-4.6
			L4.4,20H1.6l6-6H2c-1,0-1.9-0.8-2-1.9L0,12V2c0-1.1,0.8-1.9,1.8-2L2,0h16H2z M18,5.4l-4.3,4.3c-0.4,0.4-0.9,0.4-1.3,0.1l-0.1-0.1
			L11,8.4L9.7,9.7c-0.4,0.4-0.9,0.4-1.3,0.1L8.3,9.7L6,7.4L4.7,8.7C4.6,8.9,4.3,9,4.1,9L4,9H2v3h16L18,5.4z M18,2H2v5h1.6l1.7-1.7
			c0.4-0.4,1-0.4,1.4,0L9,7.6l1.3-1.3c0.4-0.4,1-0.4,1.4,0L13,7.6l5-5V2z"/>
	</g>
</g>
</svg>
